<svg xmlns="http://www.w3.org/2000/svg" width="3000" height="3000" fill="none" viewBox="0 0 3000 3000" id="employee-does-financial-security">
  <path fill="#FFC5A6" d="M1144.57 1472.52C1127.58 1497.66 1090.78 1496.02 1060.84 1491.27C1000.55 1481.84 940.431 1471.35 880.548 1459.69C866.427 1456.94 850.899 1453.31 842.403 1441.65C835.548 1432.27 834.903 1419.91 834.493 1408.36C832.325 1345.79 830.157 1283.21 828.106 1220.57C827.345 1199.24 826.583 1177.97 825.88 1156.65C909.083 1120.02 1005.94 1102.86 1103.5 1096.94C1108.71 1096.59 1114.57 1096.47 1118.67 1099.75C1123.18 1103.33 1124.06 1109.83 1124.53 1115.57C1130.16 1177.62 1135.78 1239.67 1141.41 1301.72C1144.92 1340.69 1148.5 1379.71 1152.01 1418.68C1153.65 1437.13 1154.94 1457.23 1144.57 1472.52Z"></path>
  <path fill="#FF9F6B" d="M1141.46 1301.78C1140.12 1302.01 1138.77 1302.25 1137.42 1302.43 1051.52 1314.67 915.469 1311.04 827.461 1201.82 826.699 1180.49 826.641 1178.03 825.938 1156.7 909.141 1120.08 1006 1102.91 1103.55 1097 1108.77 1096.64 1114.63 1096.53 1118.73 1099.81 1123.24 1103.38 1124.12 1109.89 1124.59 1115.63 1130.21 1177.68 1135.84 1239.67 1141.46 1301.78ZM753.753 919.745C733.303 925.546 719.124 944.12 708.87 962.753 704.241 971.132 700.081 979.921 698.382 989.296 692.757 1020.29 716.136 1050.7 744.905 1063.53 773.675 1076.37 806.428 1075.66 837.893 1074.14 943.479 1069.04 1048.71 1057.73 1152.95 1040.21 1166.66 1037.93 1180.61 1035.41 1193.09 1029.26 1229.42 1011.27 1244.53 960.995 1225.67 925.136 1212.25 899.589 1185.53 883.065 1157.64 875.565 1129.75 868.065 1100.45 868.534 1071.57 869.354 964.28 872.401 858.635 889.921 753.753 919.745Z"></path>
  <path fill="#FFC5A6" d="M757.502 890.862C754.338 945.94 756.038 1001.31 762.542 1056.1C768.577 1106.55 780.706 1160.16 818.323 1194.32C829.514 1204.46 842.463 1212.42 855.999 1219.16C937.62 1259.94 1040.63 1254.03 1117.03 1204.16C1125.18 1198.83 1133.09 1193.03 1140.06 1186.17C1161.39 1165.32 1172.93 1136.08 1177.5 1106.55C1182.07 1077.01 1180.32 1047.01 1178.5 1017.19C1175.69 970.139 1172.82 923.03 1167.25 876.155C1165.78 863.967 1164.08 851.487 1158.11 840.706C1148.5 823.421 1129.75 813.518 1111.53 805.842C1061.84 784.807 1007.35 772.62 953.674 778.655C927.249 781.643 901.526 788.909 875.92 796.233C858.284 801.272 840.413 806.37 824.71 815.803C807.073 826.409 793.069 841.936 779.299 857.171C770.393 867.249 758.264 877.678 757.502 890.862Z"></path>
  <path fill="#203752" d="M1176.39 984.428C1172.05 979.389 1169.71 972.944 1167.6 966.616C1153.36 924.018 1144.28 879.721 1140.76 834.956C1111.35 856.928 1075.2 871.811 1037.87 879.135C1000.55 886.46 962.052 886.518 924.259 882.417C911.544 881.01 898.771 879.135 886.642 875.092C865.197 867.885 846.564 854.057 829.572 839.116C824.767 902.046 798.283 964.096 756.564 1013.49C722.345 993.628 704.123 954.37 696.095 915.639C687.072 872.456 688.361 826.811 702.658 785.151C716.955 743.432 744.669 705.991 782.052 682.553C797.228 673.061 814.63 665.737 832.794 669.897C853.419 633.217 896.251 615.757 936.681 604.214C983.673 590.796 1135.72 578.725 1213.01 684.018C1250.1 734.526 1242.72 808.471 1234.51 849.428C1224.85 897.885 1207.85 946.342 1176.39 984.428Z"></path>
  <path fill="#1B81A6" d="M2079.79 2518.42C2032.91 2526.74 1985.98 2535 1939.1 2543.14C1856.31 2557.5 1771.41 2571.56 1688.79 2556.45C1646.78 2548.77 1606.53 2533.71 1566.51 2518.71C1528.13 2504.36 1488.52 2489.12 1459.69 2460.06C1424.77 2424.79 1410.88 2374.45 1398.28 2326.46C1388.97 2419.16 1386.1 2509.63 1383.28 2600.16C1326.98 2617.5 1268.79 2628.75 1210.08 2633.61C1175.69 2636.48 1141.12 2637.13 1106.55 2637.77C921.389 2641.29 735.588 2644.8 551.487 2624.59C537.659 2384.53 522.483 2149.75 569.475 1922.64C526.233 2028.75 496.702 2140.43 481.936 2254.04C602.932 2219.65 730.081 2189.53 857.229 2159.47C888.811 2218.36 918.401 2278.36 945.94 2339.24C845.686 2411.02 735.413 2467.27 620.452 2511.04C556.877 2535.23 489.612 2549.12 421.584 2548.01C405.764 2547.77 389.944 2546.72 374.182 2544.61C319.045 2537.29 264.202 2515.84 225.764 2475.64C182.463 2430.35 164.416 2366.84 153.577 2305.08C113.381 2076.33 155.51 1829.59 289.983 1640.21C424.456 1450.84 655.315 1327.15 894.377 1344.84C911.252 1369.69 928.596 1395 952.561 1413.05C976.584 1431.09 1008.87 1440.94 1037.17 1430.92C1057.56 1423.71 1073.38 1407.3 1086.15 1389.84C1098.93 1372.38 1109.53 1353.28 1127.05 1333.48C1311.1 1344.14 1480.78 1454.3 1589.3 1603.36C1697.81 1752.42 1750.02 1936.64 1765.84 2120.33C1771.53 2186.19 1774.1 2256.45 1812.01 2310.59C1846.58 2359.92 1905.12 2387.05 1963.42 2402.17C1993.65 2410.02 2025.53 2415.64 2050.96 2433.75C2076.39 2451.86 2092.97 2487.48 2079.79 2518.42Z"></path>
  <path fill="#203752" d="M886.64 1457.75C907.558 1475.74 928.007 1494.38 949.687 1515.53C937.793 1694.77 892.734 2028.05 872.578 2331.5C918.457 2374.69 964.335 2417.87 1006.23 2462.87C1042.27 2417.17 1078.36 2371.52 1111.23 2327.64C1111.99 2205.35 1035.7 1620.35 1016.95 1516.52C1027.32 1497.01 1038.52 1477.97 1050.06 1458.75C1059.08 1448.09 1068.4 1436.84 1071.27 1423.18C1074.2 1409.53 1068.22 1392.89 1054.92 1388.67C1049.47 1386.91 1043.55 1387.5 1037.87 1388.03C1014.73 1390.31 991.582 1392.54 968.437 1394.82C953.378 1396.29 938.203 1397.81 923.964 1402.79C912.187 1406.95 901.113 1413.57 892.734 1422.83C887.988 1428.05 883.945 1434.38 883.125 1441.41C882.304 1448.44 885 1456.35 886.64 1457.75Z"></path>
  <path fill="#FFC5A6" d="M899.529 2313.75C967.908 2300.39 1037.46 2281.41 1092.54 2238.75C1106.07 2228.26 1119.08 2215.72 1124.47 2199.49C1131.97 2177.05 1123.59 2152.5 1112.93 2131.41C1106.66 2119.04 1099.22 2106.56 1087.62 2098.94C1074.37 2090.21 1057.26 2089.04 1041.74 2092.27C1026.21 2095.49 1011.79 2102.69 997.615 2109.78C998.963 2082.19 991.58 2054.47 978.397 2029.86C976.522 2026.29 974.236 2022.6 970.604 2020.9C965.271 2018.44 958.65 2021.31 955.018 2025.94C951.385 2030.57 950.096 2036.6 948.983 2042.4C942.83 2073.93 938.611 2106.39 924.49 2135.21C910.369 2164.04 883.533 2189.24 846.268 2190.76C862.029 2214.9 873.865 2241.5 881.365 2269.34C885.408 2284.34 888.397 2300.21 899.529 2313.75Z"></path>
  <path fill="#1B81A6" d="M481.934 2254.05C602.93 2219.65 730.078 2189.54 857.227 2159.48 888.809 2218.36 918.398 2278.36 945.938 2339.24 845.684 2411.02 735.41 2467.27 620.449 2511.04L481.934 2254.05ZM805.662 1285.6C788.435 1309.22 772.029 1333.42 754.744 1361.89 790.662 1400.68 829.041 1437.24 869.412 1471.35 880.896 1481.07 892.966 1490.97 899.529 1504.51 924.9 1469.47 950.74 1434.84 977.869 1403.44 1008.51 1428.75 1036.17 1457.63 1058.55 1493.79 1109.47 1451.31 1143.28 1403.32 1189.27 1344.84 1179.37 1325.33 1159.69 1299.26 1148.9 1281.33 1090.25 1319.24 1034.82 1361.01 977.634 1393.94 965.74 1382.63 951.56 1374.08 937.556 1365.64 894.548 1339.45 851.423 1313.44 805.662 1285.6Z"></path>
  <path fill="#31DECD" d="M1367.99 2611.53C1278.4 2603.56 1188.4 2603.21 1098.46 2602.86C1046.89 2602.68 995.154 2602.5 944.119 2609.65C953.143 2558.09 950.857 2506.65 938.318 2457.84C1080.76 2469.67 1221.38 2469.5 1359.67 2454.85C1352.22 2507.11 1354.63 2560.67 1367.99 2611.53Z"></path>
  <path fill="#203752" d="M1118.03 2455.02C1113.93 2454.9 1110.76 2458.54 1111.35 2462.58C1118.38 2510.86 1114.51 2560.08 1113.99 2608.95C1113.99 2610.88 1114.04 2613.05 1115.45 2614.4C1116.62 2615.51 1118.44 2615.68 1120.08 2615.8C1135.26 2616.8 1150.37 2617.74 1165.55 2618.73C1169.01 2618.97 1173.17 2618.91 1175.22 2616.09C1176.68 2614.04 1176.51 2611.29 1176.27 2608.77C1171.82 2559.55 1181.84 2510.04 1178.67 2460.76C1178.56 2458.71 1178.2 2456.37 1176.51 2455.25C1175.39 2454.55 1173.93 2454.55 1172.64 2454.55C1154.71 2454.96 1136.9 2455.43 1118.03 2455.02Z"></path>
  <path fill="#31DECD" d="M1256.78 2677.91C1167.19 2669.95 1077.19 2669.59 987.247 2669.24C935.685 2669.07 883.946 2668.89 832.911 2676.04C841.935 2624.48 839.649 2573.03 827.11 2524.22C969.552 2536.06 1106.9 2550.88 1245.18 2536.23C1237.79 2588.5 1243.48 2627.05 1256.78 2677.91Z"></path>
  <path fill="#203752" d="M1006.81 2521.41C1002.71 2521.29 999.549 2524.92 1000.14 2528.97C1007.17 2577.25 1003.3 2626.47 1002.77 2675.33C1002.77 2677.27 1002.83 2679.43 1004.24 2680.78C1005.41 2681.9 1007.22 2682.07 1008.87 2682.19C1024.04 2683.18 1039.16 2684.12 1054.33 2685.12C1057.79 2685.35 1061.95 2685.29 1064 2682.48C1065.47 2680.43 1065.29 2677.68 1065.06 2675.16C1060.6 2625.94 1070.62 2576.43 1067.46 2527.15C1067.34 2525.1 1066.99 2522.75 1065.29 2521.64C1064.18 2520.94 1062.71 2520.94 1061.42 2520.94C1043.55 2521.35 1025.74 2521.82 1006.81 2521.41Z"></path>
  <path fill="#31DECD" d="M1528.24 2686.41C1438.65 2678.44 1348.65 2678.09 1258.71 2677.74C1207.15 2677.56 1155.41 2677.38 1104.38 2684.53C1113.4 2632.97 1111.11 2581.52 1098.58 2532.72C1241.02 2544.55 1381.64 2544.38 1519.92 2529.73C1512.48 2581.99 1514.88 2635.55 1528.24 2686.41Z"></path>
  <path fill="#203752" d="M1278.28 2529.9C1274.18 2529.78 1271.01 2533.42 1271.6 2537.46 1278.63 2585.74 1274.76 2634.96 1274.24 2683.83 1274.24 2685.76 1274.3 2687.93 1275.7 2689.27 1276.87 2690.39 1278.69 2690.56 1280.33 2690.68 1295.51 2691.68 1310.62 2692.61 1325.8 2693.61 1329.26 2693.84 1333.42 2693.79 1335.47 2690.97 1336.93 2688.92 1336.76 2686.17 1336.52 2683.65 1332.07 2634.43 1342.09 2584.92 1338.92 2535.64 1338.81 2533.59 1338.46 2531.25 1336.76 2530.13 1335.64 2529.43 1334.18 2529.43 1332.89 2529.43 1314.96 2529.84 1297.15 2530.31 1278.28 2529.9ZM395.859 2272.03C517.09 2248.54 637.265 2219.89 757.5 2191.88 791.718 2183.91 825.937 2175.94 860.097 2167.97 867.48 2166.27 864.492 2154.91 857.168 2156.61 736.875 2184.61 616.699 2213.56 495.937 2239.52 461.66 2246.9 427.324 2253.99 392.871 2260.61 385.488 2262.13 388.476 2273.44 395.859 2272.03Z"></path>
  <path fill="#203752" d="M857.111 2170.66C892.091 2222.52 920.861 2278.36 942.423 2337.01C945.002 2344.04 956.369 2341.11 953.791 2334.08C931.818 2274.37 902.814 2217.54 867.248 2164.8C863.029 2158.59 852.892 2164.39 857.111 2170.66Z"></path>
  <path fill="#203752" d="M556.172 2537.99C668.672 2505.59 773.73 2452.68 876.035 2396.67 902.871 2381.96 930.469 2367.54 952.031 2345.4 957.305 2340.01 948.984 2331.74 943.711 2337.19 924.727 2356.65 900.937 2369.65 877.324 2382.6 852.305 2396.37 827.168 2409.91 801.856 2423.09 750.938 2449.52 699.082 2474.36 645.586 2495.28 615.293 2507.11 584.473 2517.72 553.242 2526.69 545.977 2528.74 548.906 2540.04 556.172 2537.99ZM1396.99 2515.32C1398.87 2410.02 1398.51 2304.73 1395.88 2199.44 1393.18 2094.15 1388.26 1988.97 1381 1883.91 1376.89 1824.85 1372.09 1765.84 1366.58 1706.9 1365.88 1699.46 1354.16 1699.34 1354.86 1706.84 1364.65 1811.66 1372.21 1916.72 1377.48 2021.9 1382.69 2127.07 1385.68 2232.37 1386.33 2337.66 1386.68 2396.84 1386.33 2456.08 1385.27 2515.26 1385.1 2522.82 1396.82 2522.82 1396.99 2515.32ZM766.872 1374.02C812.283 1414.51 852.419 1460.44 886.286 1510.95 888.161 1513.76 893.025 1515.35 895.544 1512.12 921.677 1479.08 947.868 1445.97 974.001 1412.92 978.63 1407.07 970.368 1398.74 965.681 1404.72 939.548 1437.77 913.357 1470.87 887.224 1503.92 890.329 1504.33 893.376 1504.68 896.482 1505.09 862.029 1453.71 821.306 1406.83 775.134 1365.7 769.509 1360.72 761.189 1368.98 766.872 1374.02Z"></path>
  <path fill="#203752" d="M969.256 1406.43C1001.78 1437.25 1032.13 1470.18 1060.31 1504.98 1062.24 1507.38 1066.64 1507.03 1068.57 1504.92 1112.87 1456.58 1152.95 1404.26 1191.56 1351.29 1196.01 1345.2 1185.82 1339.45 1181.37 1345.49 1143.34 1397.58 1103.79 1449.08 1060.19 1496.66 1062.95 1496.66 1065.7 1496.6 1068.46 1496.6 1040.33 1461.74 1009.92 1428.87 977.4 1398.05 972.01 1392.89 963.748 1401.21 969.256 1406.43ZM1089.14 2542.03C1099.81 2586.79 1110.7 2633.78 1098.69 2679.43 1096.76 2686.75 1108.07 2689.74 1110 2682.48 1122.54 2634.78 1111.64 2585.85 1100.45 2539.1 1098.69 2531.77 1087.38 2534.7 1089.14 2542.03Z"></path>
  <path fill="#203752" d="M1107.71 2566.06C1140.64 2562.66 1173.98 2563.07 1206.8 2567.58 1214.18 2568.58 1217.28 2557.27 1209.84 2556.27 1175.98 2551.58 1141.82 2550.82 1107.77 2554.34 1100.33 2555.1 1100.21 2566.82 1107.71 2566.06ZM1276.76 2590.13C1239.02 2582.63 1200.47 2580.7 1162.21 2584.68 1154.77 2585.44 1154.65 2597.16 1162.15 2596.4 1199.41 2592.47 1236.97 2594.12 1273.71 2601.44 1281.09 2602.96 1284.2 2591.65 1276.76 2590.13ZM1114.28 2630.92C1152.95 2626.53 1191.92 2625.53 1230.76 2627.93 1238.32 2628.4 1238.32 2616.68 1230.82 2616.21 1191.97 2613.81 1153.01 2614.81 1114.34 2619.2 1106.95 2620.02 1106.78 2631.74 1114.28 2630.92ZM1278.75 2646.62C1246.29 2643.16 1213.65 2642.81 1181.13 2645.57 1173.63 2646.21 1173.58 2657.93 1181.08 2657.28 1213.6 2654.53 1246.23 2654.88 1278.69 2658.34 1286.19 2659.1 1286.19 2647.38 1278.75 2646.62ZM1335.82 2546.19C1396.52 2545.02 1457.11 2541.15 1517.46 2534.53 1524.9 2533.71 1525.02 2521.99 1517.52 2522.81 1457.17 2529.43 1396.58 2533.3 1335.88 2534.47 1328.32 2534.65 1328.26 2546.37 1335.82 2546.19ZM1335.82 2576.48C1366.99 2580.17 1398.28 2579.82 1429.39 2575.78 1432.56 2575.37 1434.26 2571.44 1433.61 2568.63 1432.79 2565.23 1429.57 2564 1426.46 2564.41 1396.46 2568.34 1365.99 2568.34 1335.94 2564.76 1328.44 2563.82 1328.44 2575.6 1335.82 2576.48ZM1329.31 2655.12C1367.4 2658.46 1405.6 2657.35 1443.51 2652.13 1450.96 2651.08 1447.97 2639.77 1440.58 2640.76 1403.73 2645.86 1366.46 2646.62 1329.43 2643.4 1321.81 2642.76 1321.81 2654.47 1329.31 2655.12ZM1510.9 2598.4C1473.92 2595.11 1436.78 2595.06 1399.8 2598.28 1392.36 2598.92 1392.24 2610.64 1399.74 2610 1436.72 2606.83 1473.87 2606.83 1510.84 2610.11 1518.34 2610.76 1518.34 2599.04 1510.9 2598.4ZM1066.17 2542.03C1077.37 2542.38 1088.62 2541.97 1099.75 2540.74 1102.79 2540.39 1105.78 2538.34 1105.67 2534.94 1105.55 2532.07 1103.09 2528.67 1099.87 2529.02 1088.73 2530.19 1077.48 2530.66 1066.29 2530.31 1063.24 2530.19 1060.26 2533 1060.37 2536.11 1060.43 2539.39 1062.89 2541.91 1066.17 2542.03ZM1011.92 2532.77C948.752 2531.25 885.647 2527.85 822.659 2522.52 815.1 2521.88 815.1 2533.59 822.6 2534.24 885.588 2539.51 948.694 2542.97 1011.86 2544.49 1019.42 2544.67 1019.48 2532.95 1011.92 2532.77ZM913.769 2646.21C943.358 2645.27 972.89 2645.74 1002.42 2647.55 1009.98 2648.02 1009.98 2636.3 1002.48 2635.84 972.948 2634.02 943.359 2633.55 913.827 2634.49 906.269 2634.72 906.21 2646.44 913.769 2646.21ZM844.046 2605.83C873.635 2606.6 903.225 2607.94 932.756 2609.94 940.315 2610.46 940.315 2598.74 932.815 2598.22 903.284 2596.23 873.694 2594.88 844.104 2594.12 836.545 2593.88 836.487 2605.6 844.046 2605.83ZM1003.36 2569.1C972.307 2570.57 941.252 2569.63 910.374 2566.23 902.874 2565.41 902.874 2577.13 910.315 2577.95 941.194 2581.35 972.307 2582.28 1003.3 2580.82 1010.8 2580.47 1010.86 2568.75 1003.36 2569.1ZM1044.26 2495.22C1073.79 2498.21 1103.38 2497.44 1132.73 2493.34 1135.9 2492.87 1137.66 2489.01 1136.95 2486.19 1136.13 2482.85 1132.91 2481.57 1129.8 2481.98 1101.5 2485.96 1072.79 2486.31 1044.32 2483.5 1036.82 2482.74 1036.82 2494.46 1044.26 2495.22ZM1176.85 2514.14C1201.76 2516.6 1226.83 2516.89 1251.8 2515.02 1259.3 2514.49 1259.41 2502.71 1251.85 2503.3 1226.89 2505.11 1201.87 2504.82 1176.91 2502.42 1169.41 2501.71 1169.41 2513.43 1176.85 2514.14ZM1349.3 2477.64C1318.06 2484.2 1285.96 2485.19 1254.37 2480.98 1246.93 2479.98 1246.93 2491.7 1254.31 2492.69 1286.95 2497.09 1320.06 2495.74 1352.28 2488.94 1359.67 2487.42 1356.68 2476.05 1349.3 2477.64ZM953.264 2511.09C979.455 2515.25 1005.76 2518.24 1032.19 2520.12 1039.75 2520.64 1039.75 2508.92 1032.25 2508.4 1006.82 2506.58 981.448 2503.71 956.311 2499.78 948.928 2498.61 945.823 2509.92 953.264 2511.09ZM836.307 915.815C868.182 902.69 904.159 901.635 936.913 912.124 944.12 914.409 947.108 903.1 939.96 900.815 904.042 889.331 865.253 891.381 830.448 905.678 823.534 908.491 829.452 918.628 836.307 915.815ZM1006.76 913.299C1040.86 901.698 1077.66 902.049 1111.58 914.237 1118.67 916.815 1121.66 905.448 1114.63 902.928 1079.06 890.155 1039.63 889.803 1003.83 901.932 996.739 904.334 999.61 915.702 1006.76 913.299ZM882.419 950.801C882.067 950.86 881.716 950.918 881.423 951.035 880.661 951.328 879.782 951.621 879.079 952.09 877.556 953.028 876.56 954.082 875.563 955.547 875.388 955.84 875.212 956.133 875.036 956.485 874.685 957.188 874.333 958.008 874.157 958.77 873.806 960.41 873.806 961.934 874.157 963.633 874.802 966.387 876.735 968.848 879.138 970.313 881.657 971.836 884.997 972.07 887.751 971.25 892.907 969.727 897.126 965.098 897.185 959.531 897.243 956.66 895.954 953.848 893.962 951.856 892.087 949.981 889.216 948.692 886.521 948.926 884.938 949.043 884.235 949.277 882.771 949.922 882.243 950.156 881.833 950.508 881.364 950.86 880.251 951.68 879.314 952.735 878.669 953.965 877.966 955.371 877.497 956.953 877.556 958.535 877.556 959.297 877.673 960.117 877.907 960.879 878.142 961.641 878.435 962.52 878.962 963.164 879.313 963.867 879.841 964.453 880.544 964.863 881.13 965.391 881.774 965.742 882.536 965.918 883.942 966.27 885.759 966.094 886.989 965.332 888.278 964.512 889.392 963.281 889.743 961.758 890.036 960.352 890.095 958.535 889.157 957.305 888.981 957.071 888.864 956.895 888.747 956.602 888.923 957.07 889.157 957.598 889.333 958.067 889.274 957.832 889.216 957.656 889.157 957.422 889.216 957.949 889.274 958.418 889.333 958.945 889.274 958.653 889.274 958.36 889.333 958.008 889.274 958.477 889.216 959.004 889.157 959.473 889.216 959.18 889.274 958.887 889.392 958.594 889.216 959.063 889.04 959.531 888.806 960 888.981 959.649 889.157 959.356 889.333 959.063 889.04 959.473 888.747 959.883 888.395 960.293 888.571 960.059 888.806 959.824 889.04 959.59 888.63 959.883 888.22 960.234 887.81 960.527 888.044 960.352 888.337 960.176 888.63 960.059 888.161 960.235 887.634 960.469 887.165 960.645 887.399 960.527 887.692 960.469 887.927 960.41 887.399 960.469 886.931 960.528 886.403 960.586 886.696 960.528 887.048 960.528 887.341 960.586 886.872 960.528 886.345 960.469 885.876 960.41 886.169 960.469 886.462 960.527 886.755 960.645 886.286 960.469 885.817 960.293 885.349 960.059 885.7 960.176 885.993 960.41 886.286 960.586 885.876 960.293 885.466 960 885.056 959.649 885.466 959.942 885.759 960.293 886.052 960.645 885.759 960.235 885.407 959.824 885.114 959.414 885.349 959.766 885.583 960.117 885.759 960.527 885.583 960.059 885.349 959.531 885.173 959.063 885.349 959.473 885.466 959.883 885.524 960.293 885.466 959.766 885.407 959.297 885.349 958.77 885.407 959.18 885.407 959.531 885.349 959.942 885.407 959.473 885.466 958.945 885.524 958.477 885.466 959.004 885.349 959.473 885.114 959.942 885.29 959.473 885.466 959.004 885.7 958.535 885.466 959.063 885.173 959.531 884.88 960 885.173 959.59 885.466 959.18 885.817 958.77 885.407 959.238 884.997 959.707 884.528 960.117 884.939 959.824 885.349 959.473 885.759 959.18 885.173 959.59 884.587 959.942 883.942 960.235 884.411 960.059 884.938 959.824 885.407 959.649 884.88 959.883 884.294 960 883.708 960.117 884.235 960.059 884.704 960 885.231 959.942 884.763 960 884.353 960 883.884 959.942 884.353 960 884.88 960.059 885.349 960.117 884.938 960.059 884.528 959.942 884.118 959.824 884.587 960 885.056 960.176 885.524 960.41 885.173 960.235 884.88 960.059 884.528 959.824 884.939 960.117 885.349 960.41 885.759 960.762 885.407 960.469 885.114 960.176 884.821 959.824 885.114 960.235 885.466 960.645 885.759 961.055 885.524 960.703 885.29 960.352 885.114 959.942 885.29 960.41 885.524 960.938 885.7 961.406 885.524 960.996 885.407 960.586 885.349 960.176 885.407 960.703 885.466 961.172 885.524 961.699 885.466 961.289 885.466 960.938 885.524 960.586 885.466 961.055 885.407 961.582 885.349 962.051 885.407 961.699 885.524 961.289 885.642 960.938 885.466 961.406 885.29 961.875 885.056 962.344 885.231 961.992 885.407 961.699 885.642 961.348 885.349 961.758 885.056 962.168 884.704 962.578 884.997 962.168 885.349 961.817 885.7 961.524 885.29 961.817 884.88 962.168 884.47 962.461 884.821 962.227 885.173 961.992 885.583 961.817 885.114 961.992 884.587 962.227 884.118 962.403 884.47 962.285 884.821 962.168 885.231 962.11 886.638 961.934 888.161 960.527 888.864 959.356 889.567 958.125 889.86 956.367 889.45 954.961 888.981 953.496 888.103 952.09 886.696 951.328 886.228 951.153 885.759 950.977 885.29 950.742 884.411 950.567 883.415 950.567 882.419 950.801ZM1059.55 945.521C1058.79 945.638 1058.08 945.873 1057.32 946.166 1056.5 946.459 1055.74 946.752 1054.98 947.162 1054.22 947.572 1053.57 948.099 1052.93 948.627 1051.99 949.33 1051.23 950.326 1050.7 951.38 1050 952.845 1049.47 954.427 1049.59 956.068 1049.65 956.83 1049.71 957.709 1050 958.47 1050.29 959.232 1050.58 960.052 1050.99 960.756 1051.99 962.279 1052.99 963.275 1054.51 964.271 1054.8 964.506 1055.15 964.623 1055.51 964.798 1056.27 965.091 1057.03 965.502 1057.79 965.619 1059.49 965.912 1061.07 965.97 1062.77 965.502 1063.59 965.267 1064.41 964.916 1065.17 964.564 1065.53 964.388 1065.82 964.213 1066.17 963.978 1066.82 963.509 1067.52 962.982 1068.1 962.396 1068.69 961.81 1069.22 961.048 1069.74 960.345 1070.45 959.349 1070.92 958.177 1071.33 957.006 1071.44 956.654 1071.56 956.302 1071.62 955.951 1071.74 955.13 1071.91 954.252 1071.91 953.373 1071.85 951.674 1071.5 950.033 1070.62 948.509 1070.21 947.806 1069.69 947.103 1069.1 946.576 1068.51 946.048 1067.81 945.463 1067.05 945.17 1065.76 944.584 1065 944.349 1063.53 944.232 1062.71 944.173 1061.89 944.291 1061.13 944.466 1060.55 944.584 1060.08 944.818 1059.55 944.994 1058.96 945.228 1058.44 945.463 1057.91 945.814 1056.44 946.81 1055.21 947.982 1054.33 949.564 1053.46 951.088 1053.1 952.67 1052.99 954.427 1052.93 955.248 1053.1 956.127 1053.22 956.888 1053.34 957.533 1053.57 958.06 1053.81 958.646 1054.57 960.463 1055.8 961.986 1057.56 962.982 1058.85 963.685 1060.49 963.92 1061.95 963.568 1063.36 963.216 1064.88 962.103 1065.58 960.814 1066.29 959.466 1066.64 957.884 1066.17 956.42 1065.7 954.896 1064.82 953.607 1063.42 952.787 1063.24 952.728 1063.12 952.611 1063.01 952.494 1063.42 952.787 1063.83 953.08 1064.24 953.431 1064.06 953.314 1063.94 953.138 1063.83 953.021 1064.12 953.431 1064.47 953.841 1064.76 954.252 1064.59 954.017 1064.47 953.783 1064.35 953.49 1064.53 953.959 1064.76 954.486 1064.94 954.955 1064.82 954.603 1064.71 954.252 1064.65 953.841 1064.71 954.369 1064.76 954.838 1064.82 955.365 1064.76 954.955 1064.76 954.603 1064.82 954.193 1064.76 954.662 1064.71 955.189 1064.65 955.658 1064.71 955.248 1064.82 954.779 1065 954.369 1064.82 954.838 1064.65 955.306 1064.41 955.775 1064.59 955.423 1064.76 955.072 1065 954.779 1064.71 955.189 1064.41 955.599 1064.06 956.009 1064.35 955.658 1064.65 955.365 1065 955.072 1064.59 955.365 1064.18 955.716 1063.77 956.009 1064.12 955.775 1064.41 955.599 1064.82 955.423 1064.35 955.599 1063.83 955.834 1063.36 956.009 1063.65 955.892 1064 955.775 1064.35 955.716 1063.83 955.775 1063.36 955.834 1062.83 955.892 1063.12 955.834 1063.42 955.834 1063.71 955.892 1063.24 955.834 1062.71 955.775 1062.24 955.716 1062.42 955.775 1062.65 955.775 1062.83 955.892 1062.36 955.716 1061.89 955.541 1061.42 955.306 1061.66 955.423 1061.89 955.541 1062.07 955.658 1061.66 955.365 1061.25 955.072 1060.84 954.72 1061.01 954.896 1061.19 955.013 1061.31 955.189 1061.01 954.779 1060.66 954.369 1060.37 953.959 1060.55 954.193 1060.66 954.427 1060.78 954.662 1060.6 954.193 1060.37 953.666 1060.19 953.197 1060.31 953.548 1060.43 953.9 1060.49 954.31 1060.43 953.783 1060.37 953.314 1060.31 952.787 1060.37 953.197 1060.37 953.666 1060.31 954.076 1060.37 953.607 1060.43 953.08 1060.49 952.611 1060.43 953.197 1060.25 953.724 1060.02 954.31 1060.19 953.841 1060.37 953.373 1060.6 952.904 1060.37 953.49 1060.02 954.017 1059.67 954.545 1059.96 954.134 1060.25 953.724 1060.6 953.314 1060.19 953.841 1059.78 954.252 1059.26 954.662 1059.67 954.369 1060.08 954.017 1060.49 953.724 1060.08 954.017 1059.61 954.31 1059.14 954.486 1059.61 954.31 1060.14 954.076 1060.6 953.9 1060.19 954.076 1059.78 954.193 1059.37 954.252 1059.9 954.193 1060.37 954.134 1060.9 954.076 1060.55 954.134 1060.14 954.134 1059.78 954.076 1060.25 954.134 1060.78 954.193 1061.25 954.252 1060.9 954.193 1060.55 954.134 1060.19 953.959 1060.66 954.134 1061.13 954.31 1061.6 954.545 1061.19 954.369 1060.84 954.193 1060.49 953.959 1060.9 954.252 1061.31 954.545 1061.72 954.896 1061.37 954.603 1061.01 954.31 1060.72 953.959 1061.01 954.369 1061.37 954.779 1061.66 955.189 1061.42 954.838 1061.19 954.545 1061.07 954.134 1061.25 954.603 1061.48 955.13 1061.66 955.599 1061.54 955.248 1061.42 954.955 1061.37 954.603 1061.42 955.13 1061.48 955.599 1061.54 956.127 1061.54 955.834 1061.54 955.599 1061.54 955.365 1061.48 955.834 1061.42 956.361 1061.37 956.83 1061.42 956.537 1061.48 956.185 1061.6 955.892 1061.42 956.361 1061.25 956.83 1061.01 957.299 1061.13 957.006 1061.31 956.771 1061.48 956.478 1061.19 956.888 1060.9 957.298 1060.55 957.709 1060.78 957.416 1061.07 957.123 1061.42 956.83 1061.01 957.123 1060.6 957.474 1060.19 957.767 1060.66 957.416 1061.19 957.123 1061.78 956.888 1061.31 957.064 1060.78 957.298 1060.31 957.474 1061.07 957.181 1061.83 956.947 1062.65 956.83 1064.12 956.537 1065.58 955.306 1066.29 954.076 1066.99 952.845 1067.28 951.088 1066.87 949.681 1066.41 948.216 1065.53 946.81 1064.12 946.049 1062.48 945.404 1061.07 945.228 1059.55 945.521ZM921.506 1123.01C967.444 1140.77 1019.94 1121.55 1044.14 1078.89 1047.83 1072.33 1037.7 1066.53 1033.95 1073.09 1012.15 1111.53 965.686 1127.58 924.553 1111.7 917.522 1109.01 914.534 1120.32 921.506 1123.01Z"></path>
  <path fill="#31DECD" d="M2861.01 505.259C2861.01 505.259 2842.09 1433.91 2245.08 1596.33C1648.12 1433.91 1629.2 505.259 1629.2 505.259C1629.2 505.259 2144.59 57.6029 2861.01 505.259Z"></path>
  <path fill="#1B81A6" d="M2747.52 574.396C2747.52 574.396 2732.11 1331.95 2245.08 1464.49C1758.05 1332.01 1742.64 574.396 1742.64 574.396C1742.64 574.396 2163.11 209.181 2747.52 574.396Z"></path>
  <path fill="#203752" d="M2118.87 810.178C2118.87 810.178 2087.28 596.604 2253.98 596.604C2420.68 596.604 2379.14 819.494 2379.14 819.494L2328.69 825.119C2328.69 825.119 2349.43 651.389 2256.44 651.389C2163.46 651.389 2159.3 735.002 2171.78 807.658C2184.26 880.314 2118.87 810.178 2118.87 810.178Z"></path>
  <path fill="#31DECD" d="M2049.14 792.718C2049.14 792.718 2018.38 964.984 2057.87 1156.94C2057.87 1156.94 2261.19 1200.12 2435.16 1149.44C2435.16 1149.44 2476.46 991.351 2431.41 777.718C2431.41 777.777 2200.43 745.609 2049.14 792.718Z"></path>
  <path fill="#203752" d="M2309.59 885.411C2289.37 864.493 2258.2 856.29 2230.08 863.38C2202.36 870.353 2172.36 897.423 2187.77 928.126C2195.1 942.775 2209.45 951.329 2224.1 957.364C2242.38 964.864 2260.96 971.251 2278.53 980.333C2285.68 984.025 2292.89 988.126 2297.11 995.216C2301.74 1002.89 2302.5 1012.68 2301.44 1021.41C2299.63 1036.29 2291.48 1050.24 2280 1059.79C2247.3 1086.74 2207.11 1062.31 2187.54 1032.01C2183.44 1025.68 2173.3 1031.54 2177.4 1037.87C2194.16 1063.83 2222.64 1086.86 2255.33 1082.87C2283.87 1079.42 2307.48 1054.63 2312.46 1026.74C2315.04 1012.33 2313.4 996.095 2303.79 984.435C2292.77 971.075 2273.26 964.396 2257.79 957.95C2240.8 950.861 2220.29 946.525 2206.52 933.634C2191.76 919.806 2192.58 901.232 2207.4 887.931C2233.77 864.259 2277.6 869.181 2301.33 893.849C2306.6 899.239 2314.8 890.861 2309.59 885.411Z"></path>
  <path fill="#203752" d="M2242.33 839.653C2235.35 926.723 2232.54 1014.09 2233.89 1101.45C2234.01 1109.01 2245.72 1109.07 2245.61 1101.51C2244.26 1014.15 2247.07 926.782 2254.04 839.711C2254.63 832.211 2242.91 832.211 2242.33 839.653Z"></path>
  <path fill="#31DECD" d="M2143.24 1867.44C2143.24 1867.44 2263.07 1841.9 2394.08 1870.32C2394.08 1870.32 2382.31 2354.24 2399.94 2566.76C2399.94 2566.76 2299.28 2590.67 2143.3 2570.1L2143.24 1867.44Z"></path>
  <path fill="#31DECD" d="M1956.04 1710.47C1956.04 1710.47 2075.86 1684.92 2206.88 1713.34C2206.88 1713.34 2195.1 2197.26 2212.73 2409.78C2212.73 2409.78 2112.07 2433.69 1956.09 2413.12L1956.04 1710.47Z"></path>
  <path fill="#31DECD" d="M1812.19 1867.44C1812.19 1867.44 1932.01 1841.9 2063.03 1870.32 2063.03 1870.32 2051.25 2354.24 2068.89 2566.76 2068.89 2566.76 1968.22 2590.67 1812.25 2570.1L1812.19 1867.44ZM2077.03 2083.95C2077.03 2083.95 2196.86 2064.73 2327.87 2086.12 2327.87 2086.12 2316.1 2449.98 2333.73 2609.77 2333.73 2609.77 2233.07 2627.76 2077.09 2612.29L2077.03 2083.95Z"></path>
  <path fill="#31DECD" d="M1934.71 2206C1934.71 2206 2054.53 2189.94 2185.55 2207.81C2185.55 2207.81 2173.77 2511.68 2191.41 2645.16C2191.41 2645.16 2090.75 2660.16 1934.77 2647.27L1934.71 2206Z"></path>
  <path fill="#FF9F6B" d="M1895.27 2364.37C1851.79 2336.48 1831.11 2277.59 1847.63 2228.61C1854.26 2208.98 1866.15 2190.88 1868.67 2170.31C1871.19 2149.74 1858.88 2124.78 1838.2 2124.43C1812.89 2123.96 1796.48 2158.94 1771.29 2156.13C1749.55 2153.73 1738.83 2124.37 1717.15 2121.38C1701.97 2119.27 1688.61 2131.23 1679.06 2143.12C1669.45 2155.07 1659.96 2168.84 1645.19 2172.95C1611.27 2182.44 1581.09 2134.74 1546.99 2143.47C1532.99 2147.05 1522.67 2160.35 1520.45 2174.59C1518.22 2188.82 1523.26 2203.65 1531.93 2215.19C1541.83 2228.32 1555.95 2237.52 1567.38 2249.29C1597.38 2280.17 1606.23 2329.68 1588.77 2369.06C1576.87 2395.9 1554.78 2416.64 1534.98 2438.32C1510.43 2465.27 1488.22 2495.5 1477.91 2530.48C1467.6 2565.47 1470.82 2605.89 1493.2 2634.66C1516.99 2665.19 1557.3 2677.5 1595.62 2682.77C1662.42 2691.91 1730.39 2684.88 1796.95 2674.33C1821.03 2670.52 1845.47 2666.13 1867.38 2655.47C1912.44 2633.61 1942.26 2586.62 1950.82 2537.22C1959.37 2487.89 1948.59 2436.68 1928.49 2390.8C1926.09 2385.35 1923.51 2379.84 1919.47 2375.45C1911.91 2367.18 1898.79 2361.85 1895.27 2364.37Z"></path>
  <path fill="#203752" d="M1580.62 2280.64C1670.21 2288.2 1760.92 2295.35 1850.04 2279C1857.48 2277.65 1854.49 2266.28 1847.11 2267.63C1759.1 2283.74 1669.22 2276.3 1580.74 2268.86C1573.18 2268.28 1573.18 2279.99 1580.62 2280.64Z"></path>
  <path fill="#203752" d="M1841.25 2253.39C1765.31 2296.64 1677.36 2316.21 1590.29 2309.53C1582.74 2308.94 1582.74 2320.66 1590.24 2321.24C1679.3 2328.1 1769.53 2307.77 1847.11 2263.53C1853.67 2259.78 1847.81 2249.64 1841.25 2253.39Z"></path>
  <path fill="#203752" d="M1715.39 2299.81C1698.63 2277.19 1669.16 2251.82 1639.16 2267.06C1626.8 2273.32 1621.11 2286.98 1624.8 2300.34C1628.09 2312.29 1637.93 2321.02 1649.24 2325.41C1678.71 2336.9 1706.25 2317.39 1730.04 2302.15C1743.46 2293.54 1758.57 2284.57 1775.1 2285.1C1788.16 2285.51 1805.27 2292.89 1806.09 2308.01C1807.27 2329.16 1775.39 2328.52 1761.56 2326.94C1743.93 2324.89 1727.11 2317.97 1714.57 2305.26C1711.29 2301.98 1706.19 2303.85 1704.79 2307.89C1693.36 2341.53 1674.9 2372.23 1650.76 2398.25C1645.66 2403.75 1653.93 2412.02 1659.08 2406.45C1684.69 2378.91 1703.97 2346.45 1716.09 2310.88C1712.81 2311.76 1709.59 2312.64 1706.31 2313.52C1726.35 2333.85 1757.29 2342.17 1785.29 2338.54C1798.95 2336.78 1813.3 2329.57 1817.11 2315.22C1820.33 2302.97 1813.59 2290.26 1803.98 2282.93C1779.73 2264.36 1749.14 2276.14 1726.23 2290.61C1703.61 2304.85 1669.45 2331.33 1643.5 2308.6C1637.64 2303.44 1633.77 2295.24 1635.94 2287.39C1638.63 2277.48 1650 2274.14 1659.14 2274.56C1679.06 2275.38 1694.06 2290.67 1705.2 2305.67C1709.71 2311.64 1719.9 2305.9 1715.39 2299.81Z"></path>
  <path fill="#203752" d="M1703.32 2321.31C1708.42 2359.4 1733.26 2393.85 1767.6 2411.02 1774.34 2414.36 1780.2 2404.22 1773.4 2400.82 1741.53 2384.94 1719.38 2353.65 1714.69 2318.38 1714.28 2315.22 1710.35 2313.46 1707.54 2314.16 1704.14 2315.04 1702.91 2318.2 1703.32 2321.31ZM1713.46 2453.27C1700.27 2438.5 1679.24 2429.71 1659.49 2434.52 1639.33 2439.44 1629.37 2458.6 1636.29 2478.11 1643.44 2498.27 1662.6 2509.87 1679.59 2520.94 1696.17 2531.78 1721.42 2551.53 1710.53 2574.73 1700.1 2596.76 1649.24 2591.43 1649.12 2564.71 1649.12 2557.15 1637.4 2557.09 1637.4 2564.65 1637.58 2609.18 1719.9 2612.93 1724.18 2567.99 1726.29 2545.9 1711.17 2528.91 1694.41 2516.9 1676.95 2504.3 1648.94 2492.41 1645.9 2468.15 1644.08 2453.79 1655.8 2445.59 1668.98 2445 1682.99 2444.42 1696.11 2451.45 1705.25 2461.65 1710.23 2467.21 1718.49 2458.83 1713.46 2453.27Z"></path>
  <path fill="#203752" d="M1666.58 2422.62C1668.11 2490.18 1672.85 2557.62 1680.76 2624.71C1681.64 2632.09 1693.36 2632.27 1692.48 2624.77C1684.57 2557.68 1679.82 2490.24 1678.3 2422.68C1678.13 2415.18 1666.41 2415.06 1666.58 2422.62Z"></path>
  <path fill="#31DECD" d="M1739.77 2338.42C1739.77 2338.42 1859.59 2326.23 1990.6 2339.77C1990.6 2339.77 1989.78 2595.41 1996.46 2672.34C1996.46 2672.34 1895.8 2683.77 1739.82 2673.93L1739.77 2338.42Z"></path>
  <path fill="#203752" d="M1816.05 2338.89C1873.36 2337.25 1930.66 2339.76 1987.62 2346.39C1985.68 2344.39 1983.75 2342.46 1981.82 2340.47C1985.51 2451.03 1986.97 2561.66 1990.66 2672.23C1990.9 2679.78 2002.62 2679.84 2002.38 2672.28C1998.69 2561.72 1997.23 2451.09 1993.54 2340.53C1993.42 2337.07 1990.96 2335.02 1987.73 2334.61C1930.78 2327.93 1873.48 2325.41 1816.17 2327.11C1808.61 2327.4 1808.5 2339.12 1816.05 2338.89Z"></path>
  <path fill="#203752" d="M1941.68 2329.63C1939.69 2288.49 1939.22 2247.36 1940.22 2206.17C1940.39 2198.61 1928.67 2198.55 1928.5 2206.11C1927.5 2247.24 1927.97 2288.43 1929.96 2329.57C1930.31 2337.13 1942.03 2337.18 1941.68 2329.63Z"></path>
  <path fill="#203752" d="M1939.28 2211.03C1946.84 2211.03 1946.9 2199.31 1939.34 2199.31C1931.78 2199.31 1931.72 2211.03 1939.28 2211.03Z"></path>
  <path fill="#203752" d="M1942.27 2210.98C2023.19 2207.7 2104.22 2208.17 2185.08 2212.33C2192.64 2212.74 2192.64 2201.02 2185.14 2200.61C2104.28 2196.45 2023.24 2196.04 1942.33 2199.26C1934.83 2199.55 1934.71 2211.27 1942.27 2210.98Z"></path>
  <path fill="#203752" d="M2180.5 2215.49C2179.33 2272.03 2178.16 2328.57 2176.99 2385.12 2175.88 2440.55 2173.77 2496.09 2175.7 2551.52 2176.75 2582.28 2179.33 2612.99 2184.2 2643.4 2185.37 2650.84 2196.74 2647.85 2195.56 2640.47 2187.01 2586.62 2186.25 2532.07 2186.95 2477.69 2187.71 2422.03 2189.18 2366.37 2190.29 2310.64 2190.93 2278.94 2191.58 2247.3 2192.22 2215.6 2192.34 2207.99 2180.62 2207.99 2180.5 2215.49ZM1820.74 1870.95C1898.9 1855.37 1979.88 1857.42 2057.11 1876.81 2064.43 1878.63 2067.48 1867.32 2060.15 1865.5 1980.88 1845.64 1897.91 1843.65 1817.75 1859.64 1810.37 1861.05 1813.36 1872.42 1820.74 1870.95ZM2211.86 1865.68C2272.68 1858.59 2334.26 1862.69 2393.56 1878.04 2400.88 1879.92 2403.93 1868.61 2396.6 1866.73 2336.37 1851.15 2273.73 1846.75 2211.92 1853.96 2204.47 1854.84 2204.36 1866.56 2211.86 1865.68ZM1957.27 1715.45C2040.29 1700.56 2125.84 1702.32 2208.28 1720.43 2215.61 1722.07 2218.71 1710.76 2211.33 1709.12 2126.9 1690.54 2039.47 1688.9 1954.34 1704.14 1946.9 1705.43 1949.94 1716.79 1957.27 1715.45Z"></path>
  <path fill="#203752" d="M2206.82 1721.43C2204.12 1835.86 2201.48 1950.3 2198.79 2064.73 2198.61 2072.29 2210.33 2072.35 2210.51 2064.79 2213.2 1950.35 2215.84 1835.92 2218.54 1721.49 2218.71 1713.93 2206.99 1713.87 2206.82 1721.43ZM2008.18 2183.02C1998.52 2171.01 1994.24 2151.26 1992.07 2135.68 1988.79 2112.48 1990.49 2087.98 1999.04 2066.01 2009.3 2039.7 2030.21 2019.78 2056.17 2009.06 2093.5 1993.71 2133.81 2016.03 2149.1 2051.42 2168.67 2096.66 2149.69 2146.58 2120.86 2182.91 2116.23 2188.76 2124.49 2197.03 2129.18 2191.11 2157.25 2155.78 2176.17 2111.01 2165.86 2065.43 2156.66 2024.82 2122.32 1991.3 2079.08 1992.3 2045.74 1993.12 2013.28 2016.79 1996.52 2044.68 1982.17 2068.65 1977.42 2097.53 1979.3 2125.07 1980.82 2147.34 1985.62 2173.35 1999.98 2191.23 2004.67 2197.2 2012.87 2188.82 2008.18 2183.02Z"></path>
  <path fill="#203752" d="M2107.68 2060.33C2098.71 2049.96 2084.59 2045.1 2071.17 2048.21C2058.57 2051.08 2045.92 2061.57 2044.69 2075.1C2043.4 2089.63 2055.7 2100.18 2066.6 2107.44C2077.09 2114.48 2090.04 2123.32 2084.24 2137.85C2078.91 2151.16 2055.12 2159.59 2044.98 2147C2040.29 2141.14 2032.09 2149.51 2036.78 2155.32C2045.39 2166.04 2062.21 2166.27 2074.1 2161.76C2086.76 2157.01 2096.19 2146.29 2097.3 2132.52C2098.48 2118.28 2088.51 2108.21 2077.68 2100.71C2068.24 2094.14 2049.49 2083.3 2058.87 2069.48C2068.59 2055.12 2088.87 2056.29 2099.47 2068.6C2104.34 2074.4 2112.54 2066.02 2107.68 2060.33Z"></path>
  <path fill="#203752" d="M2077.32 2034.56C2070.82 2082.31 2063.67 2129.95 2055.99 2177.52 2054.82 2184.91 2066.13 2188.01 2067.3 2180.57 2074.98 2132.99 2082.13 2085.36 2088.63 2037.6 2089.68 2030.22 2078.38 2027.06 2077.32 2034.56ZM2057.23 1876.35C2053.95 1915.61 2053.12 1955.04 2054.77 1994.48 2055.06 2001.98 2066.78 2002.09 2066.48 1994.53 2064.84 1955.16 2065.66 1915.73 2068.95 1876.41 2069.53 1868.91 2057.81 1868.91 2057.23 1876.35ZM2171.25 2082.78C2221.23 2075.28 2272.27 2076.16 2321.9 2085.41 2329.28 2086.76 2332.38 2075.45 2324.94 2074.11 2273.15 2064.5 2220.35 2063.62 2168.26 2071.47 2160.82 2072.52 2163.87 2083.83 2171.25 2082.78Z"></path>
  <path fill="#203752" d="M2341 2589.85C2321.9 2461.35 2321.49 2329.99 2326.23 2200.38 2327.58 2163.58 2330.04 2126.78 2335.08 2090.22 2336.08 2082.84 2324.77 2079.73 2323.77 2087.17 2314.81 2152.27 2313.46 2218.07 2312.76 2283.7 2312.05 2349.97 2312.87 2416.35 2317.62 2482.5 2320.26 2519.42 2324.24 2556.22 2329.63 2592.78 2330.74 2600.28 2342.05 2597.23 2341 2589.85ZM1823.38 1925.69C1876.06 1918.42 1929.38 1917.25 1982.34 1921.88 1989.84 1922.52 1989.84 1910.81 1982.4 1910.16 1928.38 1905.41 1874.12 1906.94 1820.45 1914.32 1812.95 1915.38 1816 1926.68 1823.38 1925.69ZM2057.64 1969.93C2012.46 1963.48 1966.88 1960.84 1921.23 1962.25 1913.67 1962.49 1913.62 1974.2 1921.17 1973.97 1965.76 1972.62 2010.41 1974.97 2054.59 1981.24 2062.03 1982.29 2065.14 1970.98 2057.64 1969.93ZM1836.91 2030.45C1895.86 2028.16 1954.92 2029.39 2013.69 2034.2 2021.25 2034.78 2021.25 2023.06 2013.75 2022.48 1954.92 2017.73 1895.92 2016.44 1836.97 2018.73 1829.41 2019.02 1829.35 2030.74 1836.91 2030.45ZM1816.87 2097.18C1864.28 2095.37 1911.68 2095.01 1959.08 2096.13 1966.64 2096.3 1966.7 2084.58 1959.14 2084.41 1911.74 2083.3 1864.33 2083.65 1816.93 2085.46 1809.37 2085.76 1809.31 2097.48 1816.87 2097.18ZM1888.54 2162.16C1921.58 2159.76 1954.81 2159.94 1987.85 2162.57 1995.41 2163.16 1995.41 2151.44 1987.91 2150.85 1954.87 2148.22 1921.7 2148.04 1888.6 2150.44 1881.1 2150.97 1880.98 2162.75 1888.54 2162.16ZM1858.48 2223.63C1879.46 2222.34 1900.43 2222.23 1921.41 2223.28 1928.97 2223.63 1928.97 2211.91 1921.47 2211.56 1900.49 2210.51 1879.51 2210.62 1858.54 2211.91 1851.04 2212.38 1850.92 2224.1 1858.48 2223.63ZM1877.58 2290.19C1896.09 2290.14 1914.67 2290.14 1933.18 2290.08 1940.74 2290.08 1940.8 2278.36 1933.24 2278.36 1914.73 2278.42 1896.15 2278.42 1877.64 2278.48 1870.08 2278.48 1870.02 2290.19 1877.58 2290.19ZM1996.17 2594.65C2042.23 2590.31 2088.46 2588.09 2134.69 2587.85 2142.25 2587.79 2142.3 2576.08 2134.75 2576.13 2088.46 2576.31 2042.28 2578.59 1996.17 2582.93 1988.73 2583.63 1988.67 2595.35 1996.17 2594.65ZM2176.7 2492.75C2134.81 2490.47 2092.79 2490.12 2050.9 2491.7 2043.34 2491.99 2043.28 2503.71 2050.84 2503.42 2092.8 2501.83 2134.75 2502.19 2176.64 2504.47 2184.14 2504.88 2184.2 2493.1 2176.7 2492.75ZM1999.8 2431.53C2047.73 2428.31 2095.84 2427.84 2143.83 2430.12 2151.38 2430.47 2151.38 2418.75 2143.88 2418.4 2095.9 2416.12 2047.79 2416.59 1999.86 2419.81 1992.36 2420.28 1992.24 2432 1999.8 2431.53ZM2178.52 2339.3C2126.96 2335.37 2075.22 2334.2 2023.54 2335.9 2015.98 2336.14 2015.92 2347.85 2023.48 2347.62 2075.16 2345.92 2126.9 2347.09 2178.46 2351.02 2186.02 2351.6 2186.02 2339.89 2178.52 2339.3ZM1976.07 2278.07C2034.67 2275.55 2093.38 2275.32 2152.03 2277.31 2159.59 2277.54 2159.65 2265.82 2152.09 2265.59 2093.44 2263.6 2034.78 2263.83 1976.13 2266.35 1968.63 2266.7 1968.51 2278.42 1976.07 2278.07ZM1745.16 2411.49C1797.78 2411.6 1850.33 2411.66 1902.95 2411.78 1910.51 2411.78 1910.57 2400.06 1903.01 2400.06 1850.39 2399.94 1797.84 2399.89 1745.22 2399.77 1737.66 2399.71 1737.6 2411.43 1745.16 2411.49ZM1985.8 2473.48C1932.07 2467.97 1878.05 2467.15 1824.14 2471.02 1816.64 2471.55 1816.53 2483.27 1824.08 2482.74 1877.93 2478.87 1932.01 2479.63 1985.74 2485.2 1993.24 2485.96 1993.24 2474.24 1985.8 2473.48ZM1789.98 2553.34C1840.31 2551.11 1890.64 2551.47 1940.92 2554.34 1948.48 2554.75 1948.48 2543.03 1940.98 2542.62 1890.7 2539.75 1840.31 2539.45 1790.04 2541.62 1782.48 2541.97 1782.42 2553.69 1789.98 2553.34ZM1746.15 2617.73C1799.42 2619.96 1852.62 2622.18 1905.88 2624.41 1913.44 2624.7 1913.44 2612.98 1905.94 2612.69 1852.68 2610.46 1799.47 2608.24 1746.21 2606.01 1738.65 2605.66 1738.6 2617.44 1746.15 2617.73ZM2162.81 2144.24C2198.85 2141.66 2234.94 2140.84 2271.1 2141.78 2278.65 2141.96 2278.71 2130.24 2271.15 2130.06 2235.06 2129.07 2198.91 2129.89 2162.87 2132.52 2155.43 2133.05 2155.31 2144.77 2162.81 2144.24Z"></path>
  <path fill="#203752" d="M2310.88 2202.18C2278.13 2200.72 2245.31 2199.2 2212.56 2197.73 2205 2197.38 2205 2209.1 2212.5 2209.45 2245.26 2210.91 2278.07 2212.44 2310.82 2213.9 2318.38 2214.25 2318.38 2202.54 2310.88 2202.18ZM2190.47 2283.28C2217.83 2284.16 2245.19 2284.34 2272.56 2283.81 2280.11 2283.63 2280.17 2271.92 2272.61 2272.09 2245.25 2272.62 2217.89 2272.44 2190.52 2271.56 2182.97 2271.33 2182.97 2283.05 2190.47 2283.28ZM2192.29 2353.59C2228.96 2351.83 2265.64 2351.07 2302.38 2351.25 2309.94 2351.31 2310 2339.59 2302.44 2339.53 2265.76 2339.35 2229.02 2340.11 2192.34 2341.87 2184.79 2342.22 2184.73 2353.94 2192.29 2353.59ZM2205.82 2430.52C2241.85 2427.77 2277.95 2426.48 2314.1 2426.66 2321.66 2426.71 2321.72 2415 2314.16 2414.94 2278.01 2414.76 2241.91 2416.05 2205.88 2418.8 2198.38 2419.39 2198.32 2431.11 2205.82 2430.52ZM2190.47 2491.99C2218.71 2490.82 2247.01 2490.76 2275.25 2491.93 2282.81 2492.22 2282.81 2480.51 2275.31 2480.21 2247.07 2479.04 2218.77 2479.1 2190.53 2480.27 2183.03 2480.56 2182.91 2492.28 2190.47 2491.99ZM2187.77 2561.19C2219.65 2559.37 2251.52 2557.56 2283.4 2555.74 2290.9 2555.33 2291.01 2543.61 2283.46 2544.02 2251.58 2545.84 2219.71 2547.65 2187.83 2549.47 2180.33 2549.94 2180.21 2561.66 2187.77 2561.19ZM2213.38 1927.61C2250.17 1926.27 2287.03 1926.09 2323.83 1927.09 2331.39 1927.26 2331.44 1915.54 2323.89 1915.37 2287.09 1914.37 2250.23 1914.55 2213.44 1915.9 2205.94 1916.13 2205.82 1927.91 2213.38 1927.61ZM2389.51 1978.94C2350.43 1976.13 2311.23 1975.78 2272.15 1977.89 2264.65 1978.3 2264.53 1990.02 2272.09 1989.61 2311.23 1987.5 2350.37 1987.91 2389.45 1990.66 2396.95 1991.19 2396.95 1979.47 2389.51 1978.94ZM2214.79 2046.57C2253.63 2044.58 2292.6 2044.52 2331.45 2046.45 2339 2046.8 2339 2035.08 2331.5 2034.73 2292.66 2032.86 2253.69 2032.86 2214.84 2034.85 2207.34 2035.26 2207.23 2046.98 2214.79 2046.57ZM2332.15 2114.88C2345.04 2113.94 2357.93 2113.41 2370.82 2113.47 2373.99 2113.47 2376.68 2110.83 2376.74 2107.67 2376.74 2104.51 2374.1 2101.75 2370.94 2101.75 2358.05 2101.75 2345.16 2102.22 2332.27 2103.16 2329.1 2103.39 2326.41 2105.62 2326.35 2108.96 2326.29 2111.95 2328.99 2115.11 2332.15 2114.88ZM2323 2184.43C2345.33 2183.9 2367.65 2183.38 2389.98 2182.85 2397.54 2182.67 2397.59 2170.95 2390.04 2171.13 2367.71 2171.66 2345.39 2172.18 2323.06 2172.71 2315.5 2172.89 2315.45 2184.61 2323 2184.43ZM2386.58 2234.71C2373.46 2234.71 2360.33 2235.24 2347.21 2236.23 2344.04 2236.47 2341.35 2238.69 2341.29 2242.03 2341.29 2245.02 2343.93 2248.19 2347.09 2247.95 2360.21 2246.96 2373.34 2246.43 2386.46 2246.43 2389.63 2246.43 2392.32 2243.79 2392.38 2240.63 2392.44 2237.41 2389.75 2234.71 2386.58 2234.71ZM2327.28 2320.25C2339.71 2319.49 2352.19 2319.02 2364.67 2318.9 2367.71 2318.85 2370.7 2316.27 2370.58 2313.1 2370.47 2310 2368.01 2307.19 2364.78 2307.19 2352.3 2307.3 2339.82 2307.77 2327.4 2308.53 2324.35 2308.71 2321.37 2311.05 2321.48 2314.33 2321.54 2317.32 2324 2320.43 2327.28 2320.25ZM2384.47 2372.1C2371.53 2372.81 2358.63 2373.51 2345.69 2374.21 2342.52 2374.39 2339.83 2376.73 2339.77 2380.01 2339.77 2383.06 2342.4 2386.11 2345.57 2385.93 2358.52 2385.23 2371.41 2384.53 2384.36 2383.82 2387.52 2383.65 2390.22 2381.3 2390.28 2378.02 2390.33 2374.98 2387.64 2371.93 2384.47 2372.1ZM2328.86 2463.28C2342.99 2460.58 2357.34 2460.12 2371.64 2461.58 2374.8 2461.87 2377.5 2458.71 2377.56 2455.78 2377.56 2452.38 2374.86 2450.21 2371.76 2449.86 2356.46 2448.34 2341.05 2449.1 2325.99 2451.97 2322.89 2452.56 2321.01 2456.19 2321.78 2459.12 2322.6 2462.28 2325.76 2463.87 2328.86 2463.28ZM2386.93 2509.8C2367.83 2510.1 2348.73 2510.33 2329.57 2510.62 2322.01 2510.74 2321.95 2522.46 2329.51 2522.34 2348.61 2522.05 2367.71 2521.82 2386.87 2521.52 2394.37 2521.41 2394.43 2509.69 2386.93 2509.8ZM2133.34 2023C2154.43 2024 2175.52 2024.99 2196.56 2025.99 2204.12 2026.34 2204.12 2014.62 2196.62 2014.27 2175.53 2013.28 2154.43 2012.28 2133.4 2011.28 2125.84 2010.93 2125.84 2022.65 2133.34 2023ZM2204.83 1958.55C2167.5 1955.86 2130.06 1954.39 2092.62 1954.16 2085.06 1954.1 2085 1965.82 2092.56 1965.88 2130 1966.11 2167.44 1967.58 2204.77 1970.27 2212.27 1970.86 2212.33 1959.14 2204.83 1958.55ZM2072.11 1908.93C2104.98 1907.99 2137.85 1907.99 2170.73 1908.99 2178.28 1909.22 2178.34 1897.5 2170.78 1897.27 2137.91 1896.27 2105.04 1896.27 2072.17 1897.21 2064.67 1897.45 2064.55 1909.16 2072.11 1908.93ZM1998.69 1838.67C2066.31 1834.1 2134.1 1834.04 2201.72 1838.49 2209.28 1838.96 2209.28 1827.24 2201.78 1826.77 2134.16 1822.32 2066.31 1822.38 1998.75 1826.95 1991.25 1827.48 1991.19 1839.2 1998.69 1838.67ZM1993.89 1777.14C2051.9 1770.7 2110.49 1771.05 2168.44 1778.14 2175.94 1779.08 2175.88 1767.3 2168.5 1766.42 2110.55 1759.33 2052.01 1759.04 1993.95 1765.42 1986.5 1766.24 1986.39 1777.96 1993.89 1777.14ZM1735.43 2346.21C1728.87 2454.2 1729.81 2562.48 1738.3 2670.35 1738.89 2677.85 1750.61 2677.91 1750.02 2670.41 1741.53 2562.6 1740.59 2454.26 1747.15 2346.27 1747.62 2338.71 1735.9 2338.71 1735.43 2346.21ZM1099.86 2539.1C1160.33 2545.96 1221.27 2547.3 1282.03 2543.03 1289.53 2542.5 1289.65 2530.78 1282.09 2531.31 1221.39 2535.53 1160.45 2534.24 1099.92 2527.38 1092.42 2526.5 1092.48 2538.22 1099.86 2539.1ZM1090.61 2092.04C1073.32 2077.74 1044.9 2081.43 1025.04 2088.11 1013.5 2091.98 1004.24 2098.36 995.098 2106.27 984.669 2115.3 973.126 2121.45 959.649 2124.5 952.266 2126.14 955.255 2137.5 962.579 2135.86 973.594 2133.4 984.2 2129.01 993.458 2122.5 1002.48 2116.18 1009.92 2107.86 1019.88 2102.88 1029.43 2098.07 1040.33 2095.84 1050.94 2094.91 1061.37 2093.97 1073.73 2093.38 1082.34 2100.47 1088.15 2105.1 1096.47 2096.84 1090.61 2092.04ZM584.822 1816.46C561.795 1923.8 545.74 2032.67 537.01 2142.12 534.49 2173.41 532.615 2204.7 531.326 2236.05 531.033 2243.61 542.752 2243.61 543.045 2236.11 547.674 2126.89 559.393 2018.08 578.377 1910.45 583.768 1880.04 589.686 1849.68 596.189 1819.51 597.772 1812.12 586.404 1809.08 584.822 1816.46Z"></path>
  <path fill="#203752" d="M485.213 2235.11C504.725 2137.61 533.026 2041.99 569.764 1949.59C572.518 1942.55 561.209 1939.63 558.455 1946.54C521.717 2038.94 493.416 2134.57 473.905 2232.07C472.44 2239.45 483.748 2242.55 485.213 2235.11Z"></path>
</svg>